<?xml version="1.0" encoding="utf-8"?>
<!-- Generator: Adobe Illustrator 27.5.0, SVG Export Plug-In . SVG Version: 6.00 Build 0)  -->
<svg version="1.1" xmlns="http://www.w3.org/2000/svg" xmlns:xlink="http://www.w3.org/1999/xlink" x="0px" y="0px"
	 viewBox="0 0 3264 1225.546" style="enable-background:new 0 0 3264 1225.546;" xml:space="preserve">
<g id="Bg">
	<rect style="opacity:0;fill:#FFFFFF;" width="3264" height="1225.55"/>
</g>
<g id="Layer_1">
	<g>
		<polygon style="fill-rule:evenodd;clip-rule:evenodd;fill:#584313;" points="163.2,555.216 1102.189,1014.614 1103.205,1081.592 
			1397.183,1073.019 1397.183,1002.932 2387.38,848.584 3100.8,352.192 1781.328,585.423 1693.583,649.891 1595.783,630.383 
			1608.728,576.793 828.857,214.673 		"/>
		<polygon style="fill-rule:evenodd;clip-rule:evenodd;fill:#512E18;" points="3086.408,301.918 3100.8,352.192 2387.38,848.584 
			1397.183,1002.932 1397.183,1073.019 1103.205,1081.592 1102.189,1014.614 163.2,555.216 163.2,489.712 1129.488,976.091 
			1133.496,1060.072 1375.717,1042.784 1375.717,988.901 2371.139,815.049 		"/>
		<polygon style="fill-rule:evenodd;clip-rule:evenodd;fill:#512E18;" points="1397.183,1073.019 1864.392,575.25 1781.328,585.423 
			1397.183,976.091 		"/>
		<polygon style="opacity:0.6;fill-rule:evenodd;clip-rule:evenodd;fill:#512E18;" points="2371.139,815.049 2387.38,848.584 
			3100.8,352.192 3086.408,301.918 		"/>
		<polygon style="fill-rule:evenodd;clip-rule:evenodd;fill:#584313;" points="1781.328,585.423 3086.408,301.918 2371.139,815.049 
			1375.717,988.901 		"/>
		<polygon style="fill-rule:evenodd;clip-rule:evenodd;fill:#584313;" points="163.2,489.712 828.857,214.673 1608.728,576.793 
			1129.488,976.091 		"/>
		<path style="fill-rule:evenodd;clip-rule:evenodd;fill:#FFDFC8;" d="M3005.236,103.219l-20.969,220.844L2326.01,778.95
			l-909.906,169.71l-40.388,40.241v53.883c-65.761-46.344-230.81,2.185-230.81,2.185l4.401-85.437l-921.167-496.7l1.641-160.914
			l683.149-163.101c242.72,142.398,805.829,207.122,822.01,239.484c16.182,32.361-9.707,111.456-9.707,111.456
			c199.951-203.093,35.17-61.551,1279.743-428.48l-198.835,157.055L3005.236,103.219z"/>
		<polygon style="opacity:0.4;fill-rule:evenodd;clip-rule:evenodd;fill:#FFDFC8;" points="2293.521,553.061 3004.977,61.277 
			2838.763,197.07 3005.236,103.219 2984.267,324.063 2326.01,778.95 		"/>
		<path style="fill-rule:evenodd;clip-rule:evenodd;fill:#E19896;" d="M1725.234,489.757l-379.723,336.401
			c0,0-60.991,67.16-82.026,133.374c0,0-71.669-110.544-129.99-144.483l601.445-436.747
			C1734.941,378.302,1751.123,407.04,1725.234,489.757z"/>
		<path style="opacity:0.6;fill-rule:evenodd;clip-rule:evenodd;fill:#E19896;" d="M2326.01,778.95l-909.906,169.71l-40.388,40.241
			v53.883c-65.761-46.344-230.81,2.185-230.81,2.185l4.401-85.437l-921.167-496.7l1.641-160.914
			c137.367,136.993,826.559,457.725,903.713,513.131c77.023,55.534,129.99,144.483,129.99,144.483s73.397-123.884,133.719-144.467
			c60.325-20.711,896.317-262.005,896.317-262.005L2326.01,778.95z"/>
		<path style="fill:#E19896;" d="M1103.309,710.34c-171.385-48.391-582.926-290.236-734.751-382.858l548.269-150.246
			c188.33,92.885,443.345,184.426,651.369,220.058L1103.309,710.34z M400.939,332.023c80.79,48.796,519.73,311.209,700.143,364.214
			l433.438-291.86c-65.99-13.129-332.111-71.668-619.02-213.369L400.939,332.023z"/>
		<path style="fill-rule:evenodd;clip-rule:evenodd;fill:#E19896;" d="M524.221,340.544v37.758l492.273,256.045h117.002
			l303.219-190.998v-42.393c0,0-284.3-68.358-517.309-186.283l-56.634,3.659L524.221,340.544z"/>
		<path style="fill-rule:evenodd;clip-rule:evenodd;fill:#E19896;" d="M1551.193,703.298l342.324-324.996l811.818-207.386
			l-424.778,318.796C2280.557,489.712,1702.331,628.755,1551.193,703.298z"/>
		<polygon style="opacity:0.6;fill-rule:evenodd;clip-rule:evenodd;fill:#512E18;" points="2326.01,778.95 2225.685,840.45 
			1375.717,988.901 1416.105,948.659 		"/>
		<path style="fill-rule:evenodd;clip-rule:evenodd;fill:#B41C2E;" d="M1912.309,766.623c0,0-60.758,67.852-115.401,209.846
			l33.278,28.665l126.961-28.665c0,0,54.09-184.887,127.787-246.777L1912.309,766.623z"/>
		<path style="fill-rule:evenodd;clip-rule:evenodd;fill:#B41C2E;" d="M1422.14,851.456c0,0-81.104,111.822-97.556,241.114
			l39.963,71.699l97.556-65.821c0,0,60.524-230.271,94.029-285.62L1422.14,851.456z"/>
		<path style="opacity:0.6;fill-rule:evenodd;clip-rule:evenodd;fill:#512E18;" d="M2084.934,729.693l-8.667,95.836l-26.545,45.658
			l13.26,27.963l-84.759,15.364C1978.223,914.514,2014.29,789.958,2084.934,729.693z"/>
		<path style="opacity:0.6;fill-rule:evenodd;clip-rule:evenodd;fill:#512E18;" d="M1556.131,812.827v109.714l-32.026,40.148v20.458
			l-31.165,5.4C1492.94,988.547,1524.238,867.702,1556.131,812.827z"/>
	</g>
</g>
</svg>
